{"title":"Formula 1 2014 - Malaysia  Practice Session 2 720p.H264.AC3.TBK","uid":9842433,"size":3922005956,"categoryP":"video","categoryS":"hd___tv_shows","magnet":"?xt=urn:btih:fbf9415ab74e1b065b98c498e8f6e346095c8a82&amp;dn=Formula+1+2014+-+Malaysia++Practice+Session+2+720p.H264.AC3.TBK&amp;tr=udp%3A%2F%2Ftracker.openbittorrent.com%3A80&amp;tr=udp%3A%2F%2Fopen.demonii.com%3A1337&amp;tr=udp%3A%2F%2Ftracker.coppersurfer.tk%3A6969&amp;tr=udp%3A%2F%2Fexodus.desync.com%3A6969","seeders":2,"leechers":0,"uploader":"tbkf1","files":3,"time":1395966246,"description":"Race 2: Kuala Lumpur, Malaysia\n\nPRACTICE SESSION 2\n\nFull Coverage of the 2nd Practice Session from the Sepang Circuit, Kuala Lumpur, Broadcast Live via SKY SPORTS F1 HD\n\nMAIN FILE DETAILS:\n\nAir Date: 28.03.14\nCircuit: Sepang, Kuala Lumpur\nResolution: 1280x720\nAudio: AC3 5.1 Dolby Digital \nVideo: H.264 Profile 4.0 High\nContainer: MKV\nRunning Time: 2:09.48\nBroadcast Time: 05:45-08:00\nSource: Encoded From VU+ Solo2 PVR\nBroadcast: Sky Sports F1 HD (UK)\nFile Size: 3.65GB\n\n\nI will be providing the entire F1 Season from Sky Sports F1 HD.. Please visit my blog below for full details of everything you need\nfor the forthcoming F1 2014 Season including links to all torrents and fileshare downloads.\n\nFormula 1 Blog: see .txt file\n\nTo reduce SKY's LIVE audio sync errors during add-breaks,the commercials have been left intact. Removing them can cause considerable encoding and playback problems as thelive stream switches from Dolby Digital to standard stereo output and back during such breaks, this plays havoc \n\nwith encoding the audio feed as pure 6 channel AC3 Digital.\n\nAll my torrents for F1 2014 are wrapped into MKV format. Resolution is scaled to 720p with 6 channel AC3 Dolby Digital Audio.\n\nThese video files will play very fluidly with the standard media players such as VLC, WMP, KM Player, WMC, MP-HC.\n\n\nScreenshots are also provided for visual confirmation &amp; quality, I do try to check carefully not to show any spoilers!\n\n\n\nI welcome any comments or suggestions...\n\n\nFOR ALL YOUR LATEST F1 NEWS, GOSSIP, TRACK GUIDES, DISCUSSION &amp; FULL TORRENT &amp; FILESHARE LINKS INFORMATION IN MORE DETAIL, AND ACCESS TO MUCH \n\nMORE, PLEASE KEEP YOUR EYE ON MY BLOG \n\n\n**For anyone having mkv playback issues on Windows 7 or 8, I do recommend installing the Shark Codec Packs which are available free on the \n\nlink below: &lt;a href=&quot;\nhttp://shark007.net/&quot; rel=&quot;nofollow&quot; target=&quot;_NEW&quot;&gt;\nhttp://shark007.net/&lt;/a&gt; (*NOTE: sharks default settings work well for WMP)\n\nEXTENDED FILE DETAILS:\n\nFormat                                   : AVC\nFormat/Info                              : Advanced Video Codec\nFormat profile                           : &lt;a class=&quot;__cf_email__&quot; href=&quot;/cdn-cgi/l/email-protection&quot; data-cfemail=&quot;5f173638371f136b716f&quot;&gt;[email&amp;#160;protected]&lt;/a&gt;&lt;script cf-hash='f9e31' type=&quot;text/javascript&quot;&gt;\n/* &lt;![CDATA[ */!function(){try{var t=&quot;currentScript&quot;in document?document.currentScript:function(){for(var t=document.getElementsByTagName(&quot;script&quot;),e=t.length;e--;)if(t[e].getAttribute(&quot;cf-hash&quot;))return t[e]}();if(t&amp;&amp;t.previousSibling){var e,r,n,i,c=t.previousSibling,a=c.getAttribute(&quot;data-cfemail&quot;);if(a){for(e=&quot;&quot;,r=parseInt(a.substr(0,2),16),n=2;a.length-n;n+=2)i=parseInt(a.substr(n,2),16)^r,e+=String.fromCharCode(i);e=document.createTextNode(e),c.parentNode.replaceChild(e,c)}}}catch(u){}}();/* ]]&gt; */&lt;/script&gt;\nFormat settings, CABAC                   : Yes\nFormat settings, ReFrames                : 5 frames\nCodec ID                                 : V_MPEG4/ISO/AVC\nDuration                                 : 2h 9mn\nBit rate                                 : 3 564 Kbps\nWidth                                    : 1 280 pixels\nHeight                                   : 722 pixels\nDisplay aspect ratio                     : 16:9\nOriginal display aspect ratio            : 16:9\nFrame rate mode                          : Constant\nFrame rate                               : 25.000 fps\nColor space                              : YUV\nChroma subsampling                       : 4:2:0\nBit depth                                : 8 bits\nScan type                                : Progressive\nBits/(Pixel*Frame)                       : 0.154\nStream size                              : 3.23 GiB (88%)\nWriting library                          : x264 core 130 r2273 b3065e6\nLanguage                                 : English\nDefault                                  : Yes\nForced                                   : No\nColor primaries                          : BT.709\nTransfer characteristics                 : BT.709\nMatrix coefficients                      : BT.709\n\nAudio\nID                                       : 2\nFormat                                   : AC-3\nFormat/Info                              : Audio Coding 3\nMode extension                           : CM (complete main)\nFormat settings, Endianness              : Big\nCodec ID                                 : A_AC3\nDuration                                 : 2h 9mn\nBit rate mode                            : Constant\nBit rate                                 : 384 Kbps\nChannel(s)                               : 6 channels\nChannel positions                        : Front: L C R, Side: L R, LFE\nSampling rate                            : 48.0 KHz\nBit depth                                : 16 bits\nCompression mode                         : Lossy\nStream size                              : 357 MiB (10%)\nLanguage                                 : English\nDefault                                  : Yes\nForced                                   : No\n","torrent":{"xt":"urn:btih:fbf9415ab74e1b065b98c498e8f6e346095c8a82","amp;dn":"Formula+1+2014+-+Malaysia++Practice+Session+2+720p.H264.AC3.TBK","amp;tr":["udp%3A%2F%2Ftracker.openbittorrent.com%3A80","udp%3A%2F%2Fopen.demonii.com%3A1337","udp%3A%2F%2Ftracker.coppersurfer.tk%3A6969","udp%3A%2F%2Fexodus.desync.com%3A6969"],"infoHash":"fbf9415ab74e1b065b98c498e8f6e346095c8a82","infoHashBuffer":{"type":"Buffer","data":[251,249,65,90,183,78,27,6,91,152,196,152,232,246,227,70,9,92,138,130]},"announce":[],"urlList":[]}}